<svg xmlns="http://www.w3.org/2000/svg" viewBox="0 0 197.27 192.71"><defs><style>.cls-1{fill:#60b88e;}.cls-2{fill:#f8ba11;}.cls-3{fill:#eeb32c;}.cls-4{fill:#f7b41a;}.cls-5{fill:#f5c526;}.cls-6{fill:#d0d24d;}.cls-7{fill:#f3d732;}.cls-8{fill:#555226;}.cls-9{fill:#1a5c3b;}.cls-10{fill:#efde40;}.cls-11{fill:#08211e;}.cls-12{fill:#0e1b26;}.cls-13{fill:#051b1d;}.cls-14{fill:#0a1c1b;}.cls-15{fill:#5eb98b;}</style></defs><g id="Capa_2" data-name="Capa 2"><g id="Capa_1-2" data-name="Capa 1"><path d="M89,43.1c2.21-2.88,4-6.07,5.89-9.13a29.81,29.81,0,0,1,2.74-3.78c1-1.11,1.93-1,3.07-.24A9.49,9.49,0,0,1,103,32.81q11,17.28,21.85,34.61c1.58,2.52,3.15,5,4.67,7.6a1.51,1.51,0,0,0,1.52.87c5.83-.09,11.66-.3,17.48-.12,4.16.13,8.38-.48,12.51.83,6.09,1.94,10,6,12.21,11.87a16.63,16.63,0,0,1,.86,6.64,13.48,13.48,0,0,0,.08,4.7,3.63,3.63,0,0,0-.35,2.08q0,5.77,0,11.54,0,14,.1,28c0,4.11.15,8.22.05,12.32-.17,7.61.31,15.22-.23,22.83-1.74.93-1.58,2.38-1.06,3.92l-.1.39-.26.49,0,0-1.66.33a1,1,0,0,0-.78-.79l-.07-.07.07.08a1,1,0,0,0,.78.78,1.56,1.56,0,0,0,.53,1.23c-1.17,2.56-3.31,4.28-5.29,6.13h0a19,19,0,0,1-7.63,2.05c-14.47,0-28.93.06-43.39.07q-33.06,0-66.11,0c-5,0-10.15.45-15-1.4l0,0c-.4-.63-1.13-.8-1.7-1.19-1.92-1.31-3.75-2.69-4.74-4.9,1.73-.11,3.54-.45,3.44,2.3,0,.81.79,1.13,1.58,1.09.62,0,.93-.53.45-.88-1.54-1.13-1.3-3.4-3-4.42-.62-.37-1-1,.18-1.29,1.62-.34,1.86-1.66,2.08-2.94a18.2,18.2,0,0,0,.06-2.34c0-.44,0-1,.57-1.07s.9.47.94,1c0,.77,0,1.55.06,2.33a3.88,3.88,0,0,0,.89,2.72,7.39,7.39,0,0,0,0-3.86c-.15-1-.29-2,1.17-2.19l.27.06c0,2.89,1.65,5.53,5.53,5.12a59.36,59.36,0,0,1,6.26-.05h110c2.62,0,3.61-.85,4.29-3.52l.13-.79c.53-.85.23-1.82.39-2.73.64,1.44.29,3,.31,4.44,0,3.19-.59,3.78-3.71,3.78H40.5c-.79,0-1.57,0-2.35-.07-.5,0-1.08-.45-1.46.07s.16,1,.37,1.41c.74,1.58.94,3.25-.28,4.58s-1.29,1.47.41,2.24a6.64,6.64,0,0,0,2.68.39,11.4,11.4,0,0,1,3.5.21,11.66,11.66,0,0,0,7.27,0,10.8,10.8,0,0,1,5.61.09c2.41.63,4.85,1.21,6.89-1a2.53,2.53,0,0,1,2-.53h13.7a2.51,2.51,0,0,1,2.18.65c1,1.31,2.41,1.42,3.88,1.31,7.68-.59,15.44,1.15,23.09-1.06,1.92-.55,4.11-.43,6.17-.78,1.81-.31,3.8-.59,5.23,1.22a2.33,2.33,0,0,0,2,.62H135.7a2.77,2.77,0,0,0,1.7-.33c2-1.41,4.2-1.13,6.21-.56,3.92,1.12,7.87.82,11.83.86a1.28,1.28,0,0,0,1.19-.56c.66-1.12,1.55-1,2.51-.5,2.32,1.24,3.55-.54,5-1.75.48-.39,1.26-.5,1.49-1.16a4,4,0,0,0,0-1.33c0-1.16-.44-2.46.39-3.41a3.85,3.85,0,0,0,.64-4.18c-.28-.81-.35-1.72.54-2,1.81-.66,2-2,1.91-3.6s0-2.92,2-3.15a1.38,1.38,0,0,0,1-1.3,9.38,9.38,0,0,0-.4-4.24c-.16-.48-.47-.88-1-.8-1.81.3-1.67-.93-1.68-2.06,0-.84,0-1.69,0-2.54,0-1.07-.09-2.16,1.61-2,1,.11,1.06-.75,1.12-1.49.51-7.16.41-14.33.4-21.5,0-1.28-.43-2.17-1.84-2.29-.54-.05-1.14-.17-1.19-.79-.1-1.36-.7-2.68-.42-4.06.17-.85.19-2,1.67-1.26a.8.8,0,0,0,1.22-.58,12.59,12.59,0,0,0,0-4.66.83.83,0,0,0-1.07-.64c-1.62.37-1.5-.73-1.5-1.73,0-2.67,0-5.35,0-8,0-1.41-.35-3,1.86-3.14.61,0,.8-.82.83-1.42.05-.85,0-1.7.05-2.55.06-1.47-.36-2.08-2.07-1.83-2.85.43-4-1-3.08-3.7a12,12,0,0,0,.4-4.64,2.72,2.72,0,0,0-3.5-2.44c-.68.16-1.31.74-.84,1.18,1.65,1.55,1.13,3,.12,4.52-.18.28,0,.77,0,1.16,0,1.76.06,3.52,0,5.28-.1,2.46.35,5-.29,7.39l-.41-1.58q-.06-6.83-.13-13.66a3.43,3.43,0,0,0-2-3.65c-1.54-.59-3.43-.84-4.92.57a15.6,15.6,0,0,0-1.47.9q-17.9,13.78-35.76,27.6c-5.89,4.56-11.76,9.18-17.64,13.77-1.53.61-2.72-.09-3.88-1l-8.61-6.57c-.37-.61-1.16-.37-1.63-.78-.73-1.54-2.27-2.17-3.54-3.09a34.34,34.34,0,0,0-5.09-3.82c0-.11-.06-.21-.08-.32.68-.27,1.54.13,2.12-.57-.32-.52-1.11-.5-1.2-1.18,0-.45-.08-1.08.36-1.26,2.58-1,2.41-3.26,2.38-5.43,0-2.52-.35-2.83-2.83-2.68-2.9.19-3.26-.12-3.43-3-.16-2.69-.23-2.76-3-2.93-2.46-.16-3.15-.68-3.24-2.93s-.23-4.41-.41-6.61c-.22-2.67-.39-3.1-3.13-2.94-5.5.31-11.12-1.12-16.49,1.13,0-.25,0-.5-.06-.75a.72.72,0,0,0-.75-.69.57.57,0,0,0-.42.29c-.13.45.21.7.53.9a3.23,3.23,0,0,0,.7.25,4.35,4.35,0,0,1-.8,5.53c-.68-.2-1.1-.94-1.89-.88a9,9,0,0,0-3.54-3.09l-.44-.73c.88-.09,1.63-.37,1.85-1.33,0-.2-.11-.65-.18-.65-.85,0-1.27.7-1.81,1.2a4.57,4.57,0,0,0-.45.61c-3.34-.83-4.76.24-5.33,4a12.53,12.53,0,0,0,0,6.32v1.13a4.39,4.39,0,0,0-.31,2.29q0,8.1,0,16.19v4.57L35.56,146c-.7-2.95-1.85-5.95-.87-8.94a9.74,9.74,0,0,0,.37-5.73c-.79-2.6-.46-5.15-.62-7.72-.52-8.12,1.3-16.17.79-24.3a9.77,9.77,0,0,0-.29-2.9c-.23-.63,0-1.77-.95-1.66s-.59,1.1-.47,1.8a2.21,2.21,0,0,1,0,1c-1.11,3.67-.67,7.48-1,11.22-.12,1.41-.26,2.55-1.7,3.14a2.76,2.76,0,0,0-1.89,3.22c.13,1.06-.23,2.11-1.37,2.28-2.55.38-2.5,2.17-2.56,4.07,0,1,.56,2.27-.71,3-.26-4.43-.19-8.87-.07-13.31,2.91.68,3.1.54,3.16-2.49,0-1.12,0-2.41.86-3.1,1.56-1.24,1.52-2.5.71-4.08a1.36,1.36,0,0,1,.56-2c1.9-1.13,3.3-5.37,2.56-7.41-.3-.81-.69-.91-1.25-.32a2.87,2.87,0,0,1-3.2.9c-2.06-.94-3-.59-2.88,1.74,0,.1-.3.2-.47.31A18.34,18.34,0,0,1,25,88.05V88a18.82,18.82,0,0,1,8.41-10c4.13-2.32,8.61-2.34,13.15-2-2.41,1-4.48,3-7.4,2.32a.78.78,0,0,0-1,.66c0,.73.53.83,1.06.83a30.55,30.55,0,0,0,4.68-.15c2-.29,4-.64,5.93.32a8.65,8.65,0,0,0,3,.67c5.4.66,10.71-1.32,16.1-.48a.76.76,0,0,0,.95-.48.81.81,0,0,0-.53-.94A3.07,3.07,0,0,0,68,78.33c-4,0-8-1.29-12-.86a26.72,26.72,0,0,1-3.9,0c-1.08,0-2.1-.25-2.42-1.53q7.78,0,15.56,0c1.76,0,3.64.32,4.77-1.58.12.63.8.82,1.06,1.33s.46,1.12,1.24.93,1-.8,1.14-1.43c.52-1.9.09-2.5-2.2-3.12l.33-.41c1.9-.44,2.38-1.82,2.35-3.54.65-2.49,2.69-4.23,3.59-6.59h0a18.59,18.59,0,0,0,2.68-4C83.17,52.71,86.06,47.9,89,43.1ZM33.66,88.45c0-.32,0-.64,0-1s-.18-.77-.64-.84a.62.62,0,0,0-.74.46.84.84,0,0,0,.33,1,4.68,4.68,0,0,0,1.08.33c.3,1.08-.79,2.68,1.17,3.13l.08.07-.06-.08C34.61,90.47,36.41,88.6,33.66,88.45Zm46.2-5.08c-1.67,2-.36,4.27-.52,6.4.75-2.08.42-4.26.52-6.41,1.28-.76.67-1.71.46-2.63C79.66,81.56,79.94,82.48,79.86,83.37Zm32.88.83c-2.1,0-4.27,1-6.25-.51a2.47,2.47,0,0,1,.17-3.06c2.14-3,2.53-6.43,2.24-9.91-.65-8.11-4.79-14.82-9.05-21.44-.2-.3-.54-1-1.19-.41C97.57,50,97.83,51.65,97.13,53c-2.21,4.14-3.67,8.62-6.51,12.5-1.87,2.56-3.6,5.24-5.5,7.79-.7.27-1.45-1-2-.13-.44.77.11,1.56.81,2.11-.55,1.07-1.11,2.14-1.63,3.23-1.88,3.86-1.86,7.87-.93,12,.77,4.55,3.53,7.88,6.73,10.93-.93.2-1.59-.42-2.35-.76-.35-.16-.85-.71-1.13,0a1,1,0,0,0,.57,1.45c.62.18,1.37,0,1.91.29,1.51.75,1.07-.25,1-1,1.95.78,3.56,2.37,5.79,2.47a17,17,0,0,0,9.88.24,17,17,0,0,0,12.4-10.49c2.11-3.63,2.47-7.53,1.94-11.77A22.33,22.33,0,0,1,112.74,84.2ZM80.24,63.32c-.08-.54.26-1.45-.55-1.62-1-.2-1,.82-1.23,1.45-.33.89.05,2-.73,2.77-.34.34-.93.68-.61,1.29s.87.49,1.39.46a1.25,1.25,0,0,0,1.3-1.19Zm-4,25A8.83,8.83,0,0,0,76,91.78c0,.41.21.78.68.81a.68.68,0,0,0,.77-.7C77.53,90.62,77.76,89.28,76.22,88.29Zm.91-3.81c.35-1.07,1.26-1.89,1.13-3.07-.05-.47-.12-1-.69-1s-.8.4-.8.88A5.88,5.88,0,0,0,77.13,84.48ZM45,88.87c-.4.07-1.08.18-.79.54a7.85,7.85,0,0,0,2.12,1.65c.24.14.57-.32.51-.65A1.78,1.78,0,0,0,45,88.87Zm40,15.89a1.31,1.31,0,0,0-1.11-.91.61.61,0,0,0-.73.67c0,.58.47.71.94.73S84.86,105.29,85,104.76Zm-3.19-35.3c-.4,1.62-.4,1.62.23,2.45A2.64,2.64,0,0,0,81.78,69.46Zm-43,18.13c-.61-.15-1-.91-1.68-.64-.26.1-.22.48-.05.68C37.51,88.2,38.09,88.15,38.74,87.59ZM86.37,105c.76.29,1.28.43,1.77-.22A1.26,1.26,0,0,0,86.37,105Zm-6.06-12.7-.2-.26a1.19,1.19,0,0,0-.13.25s.07.15.08.14A1.19,1.19,0,0,0,80.31,92.32Z"/><path d="M4,58.35a5,5,0,0,1,6-.73c5.32,2.64,10.7,5.16,16,7.78a17.3,17.3,0,0,1,2.23,1.53c.39,1.26,1.34,2.37.87,3.84-1,3.26-3.73,4.5-6.86,3q-8.16-4-16.22-8.17c-2.77-1.43-3.51-3.46-2.55-6.49a.32.32,0,0,0,.08-.28Z"/><path d="M195.37,61.53c-.32,1.18-.59,2.62-2.13,3.39-4.76,2.39-9.49,4.85-14.27,7.21-1.3.65-2.38,1.68-3.95,1.91-2.45.37-4.39-.33-5.11-2.17-1-2.58-.34-5,1.94-6.14,5.54-2.84,11.14-5.56,16.72-8.33A4.71,4.71,0,0,1,195.37,61.53Z"/><path d="M140.32,62.12a4.21,4.21,0,0,1-4.24-2.87,4.44,4.44,0,0,1,1.12-5.15c3.15-3.08,6.43-6,9.6-9.09,2.89-2.78,6.4-1.22,7.75,1.45a3.53,3.53,0,0,1-.45,4.18c-3.69,3.69-7.56,7.21-11.39,10.76A2.42,2.42,0,0,1,140.32,62.12Z"/><path d="M43.78,49.7c-.63-2.17.11-4.57,1.68-5.48a5.09,5.09,0,0,1,6.79,1.29c2.41,3,5.35,5.42,8,8.2C62.31,56,62.8,58,61.55,59.9s-3.44,2.55-6.2,1.59c-1.38-1.38-2.84-2.69-4.11-4.16C48.91,54.63,45.84,52.66,43.78,49.7Z"/><path d="M135.07,27.76c0,1.9-1.1,3.43-1.93,5-1.35,2.59-2.83,5.11-4.23,7.68a4.42,4.42,0,0,1-6.09,2,4.49,4.49,0,0,1-1.93-5.84c1.88-3.84,3.87-7.63,5.94-11.37,1.1-2,2.82-2.43,5.21-1.7A4,4,0,0,1,135.07,27.76Z"/><path d="M103.57,10.52c0,2,0,4,0,6.06,0,3.09-1.41,4.28-4.64,4.48-2.46.15-4.16-1.82-4.18-4.58,0-4,0-8.08,0-12.12A4.19,4.19,0,0,1,99.19,0a4.39,4.39,0,0,1,4.4,4.47c0,2,0,4,0,6.05Z"/><path d="M157.37,38c2.52-4,6.11-7,9.45-10.18,2.7-2.59,6.22-1,7.81,3.14a6.46,6.46,0,0,1-2.14,4c-1.88,1.77-3.65,3.65-5.44,5.51-1.25,1.3-2.41,3-4.33,3.36C159.14,44.48,156.87,41.89,157.37,38Z"/><path d="M28.35,26.59a6.36,6.36,0,0,1,3.89,2.06c2.33,2.37,4.65,4.73,6.88,7.18,2.78,3.07,1.65,7-2.19,7.93a3.45,3.45,0,0,1-3.38-1c-2.86-2.84-5.74-5.66-8.52-8.58-1.3-1.37-2-3-1-4.95A4.5,4.5,0,0,1,28.35,26.59Z"/><path d="M196.18,154.22a4.37,4.37,0,0,1-6.34,3.88c-2.84-1.54-5.62-3.23-8.32-5a4.17,4.17,0,0,1-1.5-6,4.24,4.24,0,0,1,5.52-1.81,53,53,0,0,1,9.18,5.43A3.8,3.8,0,0,1,196.18,154.22Z"/><path d="M18.76,150.66A9.28,9.28,0,0,1,15,154.15c-2.2,1.33-4.31,2.83-6.59,4A4.48,4.48,0,0,1,2,155.2a3.7,3.7,0,0,1,.87-3.8,43.37,43.37,0,0,1,9.49-6.1A4.83,4.83,0,0,1,18.75,148C18.75,148.91,18.76,149.78,18.76,150.66Z"/><path d="M188.2,101.76c-1.83,0-3.33,0-4.83,0a3.72,3.72,0,0,1-3.71-3.9c-.11-2.72,1.18-4.66,3.46-4.73a73.9,73.9,0,0,1,10.73,0,4.21,4.21,0,0,1,3.42,4.3,4,4,0,0,1-3.19,4C192,102,189.93,101.63,188.2,101.76Z"/><path d="M196.21,122.15c0,2.92-1.85,4.64-5.13,4.7A4.95,4.95,0,1,1,191,117C193.67,117,196.41,118.5,196.21,122.15Z"/><path d="M61.23,16.13c-2.66.05-4.63-2-4.79-5-.12-2.36,2.47-4.81,5.06-4.79a5.27,5.27,0,0,1,5,5A5.12,5.12,0,0,1,61.23,16.13Z"/><path d="M141.79,11.23A5,5,0,0,1,137,16.1a4.78,4.78,0,0,1-5.05-4.94,4.82,4.82,0,0,1,4.95-4.89A5,5,0,0,1,141.79,11.23Z"/><path class="cls-1" d="M4,58.35l-.41.45Z"/><path class="cls-2" d="M86.08,123.65c.47.41,1.26.17,1.63.78.06.93-.38,2.17,1,2.44A3.71,3.71,0,0,1,91.47,129a1.15,1.15,0,0,0,1.31.63,1.52,1.52,0,0,1,1.5.72c1.17,1.4,2.46,2.61,4.41,2.76-.33.76.14,1,.75,1.16l0,0c.09.16.16.44.28.46.36.08.39-.24.43-.49l.07-1.12a3.77,3.77,0,0,1,2.11,1.31c.79.73,1.65.94,2.29-.09a3.53,3.53,0,0,1,3.47-1.66c1.52,0,2.83-.5,3.09-2.3,1.68-.13,3.59.53,4.72-1.46a6.93,6.93,0,0,1,3.31-2.92,10.53,10.53,0,0,0,2.58-2c1-1,1.41-2.78,3-2.91a4.47,4.47,0,0,0,4.15-2.66c.22-.45,1.23-3.26,3-.88.09.13.51.15.7.06a.66.66,0,0,0,.27-1c-1.14-1.82.29-2.47,1.48-3.1,2.24-1.18,4.27-2.71,6.37-4.08,2.32-1.52,4.54-3.41,6.9-4.73s3.3-3.19,4.72-4.87a8.39,8.39,0,0,1,4.26-3.15c.16.79-.38,1.81.74,2.3,0,1,0,2,0,2.93q0,35.56,0,71.14v1.15c-1.89-1.89-4.28-1.26-6.45-1-5.82.59-11.62,1.36-17.49,1.05-.51,0-1.15.08-1.53-.18-2.45-1.68-5.17-1-7.77-.86a138.2,138.2,0,0,1-18.54,0c-2-.15-3.94-.31-5.89.74a5.67,5.67,0,0,1-5,.09c-2.53-1.33-4.74-.56-7.15,0a9.77,9.77,0,0,1-6.32-.21,7.94,7.94,0,0,0-3-.72c-3.8-.24-7.48.56-11.21,1.13-6.1.94-12.06-1.15-18.13-1.3-1,0-1.94-.18-2.92-.2a2.16,2.16,0,0,1-2.21-1.27c-.61-1.37-1.32-1.2-2.12-.12A3.82,3.82,0,0,1,39.51,173c-.94-.86-2.71-.85-2.7-2.72,0-4.62-.18-9.24.06-13.84a50.14,50.14,0,0,0,0-8.75c-.17-1.45-.51-3.1.3-4.41a7.55,7.55,0,0,0,.83-3.72c.24-2.79-1.23-5.25-1.28-8-.06-3,1-5.73.89-8.67-.11-2.19-.36-4.37-.5-6.54-.18-2.63.21-5.31-.23-8-.14-.87-.46-2.15.22-2.62,1.56-1.07,1.13-2.83,1.85-4.15a1.76,1.76,0,0,0-.28-2c-.34-.43-1.16-.67-.8-1.39s1.21-.57,1.88-.76c2.3-.66,4.3,1.93,6.64.54.06,0,.22.11.35.14.51.1,1.13.29,1.44-.22s-.22-.91-.62-1.25a4.21,4.21,0,0,1-.58-.74v0a3.24,3.24,0,0,1,2.85.91c.75.86,1.79,1.46,2.61,2.27,1.72,1.74,4,2.69,5.87,4.24.79.66,1.57,2.25,3.18,1.52l1.11.51a4.48,4.48,0,0,0,1.68,3.12c2.13,1.73,5.4,2.09,6.35,5.26,0,.1.35.17.54.17,1.47,0,2.31,1,3.21,2a2.87,2.87,0,0,0,2.33,1.19,14.6,14.6,0,0,0,5.53,3.84c1,.9,2,1.78,2.91,2.72C85.51,124,85.76,124,86.08,123.65ZM119,145.22c.1-1.75-1.15-1.57-2.26-1.57-12.92,0-25.83,0-38.75,0-.9,0-2.54-.64-2.55.8,0,1.22,1.59.7,2.47.7q20.53.06,41.09,0c-.52,1.14-1.56.77-2.41.77q-17.52,0-35,0a54.56,54.56,0,0,0-5.83.71,13.62,13.62,0,0,1-4,.29A2.66,2.66,0,0,0,70,147c-.62.29-1.25.66-.93,1.46.25.63.53,1.42,1.55.9.8-.4,1.22,0,1.37.79a2,2,0,0,0,1,1.6c.54-.27.59-.84.84-1.28s.2-1.19.94-1c.52.13.32.78.45,1.2a7,7,0,0,0,.27,5.88c-.11,1.24-.24,2.49-.32,3.73,0,.46,0,1,.54,1.15a.79.79,0,0,0,1.09-.54c.35-1.84,1.71-1.62,3-1.62,11.66,0,23.33,0,35,0,2.17,0,4.43-.48,6.51.67a1.24,1.24,0,0,0,1.13,0c1.34-1.27,3.08-1.41,4.72-1.88a2.64,2.64,0,0,0,1.07-.83,10.43,10.43,0,0,0,2.9-7.61c0-1.72-.7-2.72-2.36-3-1.46-.28-3-.3-3.93-1.79a.79.79,0,0,0-1.08-.13C122.28,145.58,120.61,145.09,119,145.22Z"/><path d="M162.56,108c.64-2.44.19-4.93.29-7.39.07-1.76,0-3.52,0-5.28,0-.39-.14-.88,0-1.16,1-1.55,1.53-3-.12-4.52-.47-.44.16-1,.84-1.18a2.72,2.72,0,0,1,3.5,2.44,12,12,0,0,1-.4,4.64c-.87,2.74.23,4.13,3.08,3.7,1.71-.25,2.13.36,2.07,1.83,0,.85,0,1.7-.05,2.55,0,.6-.22,1.37-.83,1.42-2.21.17-1.86,1.73-1.86,3.14,0,2.67,0,5.35,0,8,0,1-.12,2.1,1.5,1.73a.83.83,0,0,1,1.07.64,12.59,12.59,0,0,1,0,4.66.8.8,0,0,1-1.22.58c-1.48-.76-1.5.41-1.67,1.26-.28,1.38.32,2.7.42,4.06.05.62.65.74,1.19.79,1.41.12,1.84,1,1.84,2.29,0,7.17.11,14.34-.4,21.5-.06.74-.15,1.6-1.12,1.49-1.7-.2-1.6.89-1.61,2,0,.85,0,1.7,0,2.54,0,1.13-.13,2.36,1.68,2.06.51-.08.82.32,1,.8a9.38,9.38,0,0,1,.4,4.24,1.38,1.38,0,0,1-1,1.3c-2,.23-2.11,1.64-2,3.15s-.1,2.94-1.91,3.6c-.89.32-.82,1.23-.54,2a3.85,3.85,0,0,1-.64,4.18c-.83.95-.4,2.25-.39,3.41a4,4,0,0,1,0,1.33c-.23.66-1,.77-1.49,1.16-1.48,1.21-2.71,3-5,1.75-1-.52-1.85-.62-2.51.5a1.28,1.28,0,0,1-1.19.56c-4,0-7.91.26-11.83-.86-2-.57-4.25-.85-6.21.56a2.77,2.77,0,0,1-1.7.33H121.41a2.33,2.33,0,0,1-2-.62c-1.43-1.81-3.42-1.53-5.23-1.22-2.06.35-4.25.23-6.17.78-7.65,2.21-15.41.47-23.09,1.06-1.47.11-2.85,0-3.88-1.31a2.51,2.51,0,0,0-2.18-.65H65.17a2.53,2.53,0,0,0-2,.53c-2,2.18-4.48,1.6-6.89,1a10.8,10.8,0,0,0-5.61-.09,11.66,11.66,0,0,1-7.27,0,11.4,11.4,0,0,0-3.5-.21,6.64,6.64,0,0,1-2.68-.39c-1.7-.77-1.62-.92-.41-2.24s1-3,.28-4.58c-.21-.46-.76-.89-.37-1.41s1-.09,1.46-.07c.78,0,1.56.07,2.35.07H159.13c3.12,0,3.75-.59,3.71-3.78,0-1.48.33-3-.31-4.44,0-.84,0-1.68-.06-2.52-.15-2.69.34-5.4-.29-8.07v-.74l.24-.39a13.8,13.8,0,0,0,.13-7v-1.26a4.29,4.29,0,0,0,.32-2.29c.16-5.33-.29-10.66.35-16a58.81,58.81,0,0,0,0-6.64c0-.65,0-1.33-.73-1.66v-1.6c.74-2-.25-4.14.48-6,1.31-3.26.26-6.21-.5-9.26Z"/><path d="M24.22,126.82c-.29-.79.07-1.57.08-2.35,1.27-.75.68-2,.71-3,.06-1.9,0-3.69,2.56-4.07,1.14-.17,1.5-1.22,1.37-2.28a2.76,2.76,0,0,1,1.89-3.22c1.44-.59,1.58-1.73,1.7-3.14.31-3.74-.13-7.55,1-11.22a2.21,2.21,0,0,0,0-1c-.12-.7-.42-1.69.47-1.8s.72,1,.95,1.66a9.77,9.77,0,0,1,.29,2.9c.51,8.13-1.31,16.18-.79,24.3.16,2.57-.17,5.12.62,7.72a9.74,9.74,0,0,1-.37,5.73c-1,3,.17,6,.87,8.94,0,1,0,2.08,0,3.12-.46.07-1,.2-1,.73q-.09,2.2,0,4.41c0,.54.52.67,1,.74v2.35c-1,.78-1,1.55,0,2.34l0,8.26a1.12,1.12,0,0,0,0,1.51l.11,4.68c-1.46.15-1.32,1.22-1.17,2.19a7.39,7.39,0,0,1,0,3.86,3.88,3.88,0,0,1-.89-2.72c0-.78,0-1.56-.06-2.33,0-.57-.32-1.08-.94-1s-.55.63-.57,1.07a18.2,18.2,0,0,1-.06,2.34c-.22,1.28-.46,2.6-2.08,2.94-1.17.25-.8.92-.18,1.29,1.71,1,1.47,3.29,3,4.42.48.35.17.85-.45.88-.79,0-1.6-.28-1.58-1.09.1-2.75-1.71-2.41-3.44-2.3h0c.52-1.84.08-3.7.27-5.74a9.61,9.61,0,0,0-2.46,1.73,14.53,14.53,0,0,1-.89-4.75q0-16,0-32c.9-.24.72-1.07.68-1.61-.16-1.82.8-3.79-.69-5.44l0-.78a1,1,0,0,0,.78-1c0-2.07,0-4.15,0-6.22A1,1,0,0,0,24.22,126.82Z"/><path class="cls-3" d="M47,95.91a4.21,4.21,0,0,0,.58.74c.4.34,1,.66.62,1.25s-.93.32-1.44.22c-.13,0-.29-.18-.35-.14-2.34,1.39-4.34-1.2-6.64-.54-.67.19-1.52,0-1.88.76s.46,1,.8,1.39a1.76,1.76,0,0,1,.28,2c-.72,1.32-.29,3.08-1.85,4.15-.68.47-.36,1.75-.22,2.62.44,2.66,0,5.34.23,8,.14,2.17.39,4.35.5,6.54.15,2.94-1,5.7-.89,8.67,0,2.79,1.52,5.25,1.28,8a7.55,7.55,0,0,1-.83,3.72c-.81,1.31-.47,3-.3,4.41a50.14,50.14,0,0,1,0,8.75c-.24,4.6,0,9.22-.06,13.84,0,1.87,1.76,1.86,2.7,2.72.15,1.27,1.76.94,2.11,1.79.86,2.14,2.63,1.72,4.27,1.72H153.8c.77,0,1.79-.18,2.27.23,1.71,1.45,2.21.1,2.87-1h0c.83-.18.85-1,1.18-1.55.36.39.08.86.15,1.28.14.79.52.78,1,.25l.72,0c-.68,2.67-1.67,3.52-4.29,3.52h-110a59.36,59.36,0,0,0-6.26.05c-3.88.41-5.49-2.23-5.53-5.12a2.71,2.71,0,0,0,.06-.38q0-24.6,0-49.18c0-.5.17-1.06-.39-1.42v-4.57c.42-.23.39-.64.39-1q0-8.73-.1-17.46V92.73c.57-3.77,2-4.84,5.33-4h0l.53.16h0l.44.73c-.87.46-1.92-.4-2.9.44,1.85.94.71,1.43-.22,1.9-.72.36-1.55.71-1.42,1.64a2.35,2.35,0,0,0,2.06,1.83,6.12,6.12,0,0,0,2.51-.2c.57-.1,1.48-.45,1.51.59.06,2,.69,1.75,1.68.53A1.67,1.67,0,0,1,47,95.91Z"/><path d="M62.59,105.34l-1.11-.51a35.54,35.54,0,0,0-2.58-2.47c-3.7-3-7.65-5.59-11.17-8.77a4.35,4.35,0,0,0,.8-5.53h0c5.37-2.25,11-.82,16.49-1.13,2.74-.16,2.91.27,3.13,2.94.18,2.2.31,4.4.41,6.61s.78,2.77,3.24,2.93c2.74.17,2.81.24,3,2.93.17,2.84.53,3.15,3.43,3,2.48-.15,2.8.16,2.83,2.68,0,2.17.2,4.38-2.38,5.43-.44.18-.33.81-.36,1.26-.53.12-1.07-1.16-1.6,0-1.08-.64-.85-1.15.17-1.58.52-.22,1.17-.37,1.1-1.13,0-.37-.47-.36-.76-.47-.78-.3-1.15.14-1.57.71s-.45,1.55-1.39,1.74Z"/><path class="cls-4" d="M116.19,93.54A17,17,0,0,1,103.79,104a17,17,0,0,1-9.88-.24c.5-3.14.25-3.49-3-4.06-.64-.12-1.26-.37-1.9-.43-1.25-.13-1.71-.75-1.5-2,.1-.55.25-1.51-.64-1.18-2.06.77-2.22-.67-2.78-1.94s-.16-2.82-1-3.59a3.1,3.1,0,0,1-.91-2.56c2.86-1.41,3.05,3,5.51,2.53.33-.06.59.45.67.86a2.87,2.87,0,0,1,.07.58c-.06,1.66,1,2.5,2.34,3a14.18,14.18,0,0,0,4.38.89c3.58.09,7.16-.28,10.74.26,1.5.23,4.38-3.78,3.39-4.78-1.65-1.65-1.48-5.16-5-5-1.09.06-1.13-1.27-1.56-2a.56.56,0,0,1,.33-.8c1.09-.38.91.89,1.5,1.18l.35.17h0c.3.89,1,.76,1.72.72h.12a11.3,11.3,0,0,0,4.6.18c1-.17,2.21-.42,2.24,1.26,0,.43.16.79.63.85s.67-.27.85-.64a6.72,6.72,0,0,0,.75-2.18c.07-.55.41-1,1.07-.77s.52.74.26,1.15a3.46,3.46,0,0,0-.49,2.23,4.29,4.29,0,0,1-1.2,3.39C114.13,92.5,114.51,93.16,116.19,93.54Z"/><path class="cls-5" d="M98.66,48.87c.65-.63,1,.11,1.19.41,4.26,6.62,8.4,13.33,9.05,21.44.29,3.48-.1,6.93-2.24,9.91a2.47,2.47,0,0,0-.17,3.06c0,.41,0,.83,0,1.24h-1.56c0-.39,0-.78,0-1.17,0-1.51-.19-2.91,1.35-4.15,1-.77,2-2.47,1.6-3.77-.68-1.93.16-3.77-.36-5.79a26.18,26.18,0,0,1-1.08-6.76c0-.91-.67-1.37-1.42-1.67a1.07,1.07,0,0,0-1.5.52c-1.05,2.42-3.38,3.6-5.2,5.25a8.34,8.34,0,0,0-1.42,1.9C95.13,72,95,75.9,91.33,77.35c-.21.08-.31.4-.47.61a54,54,0,0,0-4.11,6.37c-.6,1.09-1.29,1.9-2.71,1.81a1.64,1.64,0,0,0-1.84,1.14l-.71,0c0-1,.05-2.05.07-3.07.61,0,1.22-.07,1.43-.81h0c.64,0,1.28,0,1.92,0a1.68,1.68,0,0,0,1.85-1.4c.31-3.2,3-5,4.48-7.5,1-1.7,1.86-3.19,2-5.12l.35,0c2.21.58,2.12-1.41,2.68-2.53.83-1.65,1.13-3.65,2.21-5.08,1.68-2.23,2.18-5.24.61-7.25,0-.11.32-.17.08-.34l-.12.31h-.29C98.71,52.54,98.68,50.7,98.66,48.87Z"/><path class="cls-6" d="M100.2,132c5.88-4.59,11.75-9.21,17.64-13.77q17.86-13.83,35.76-27.6a15.6,15.6,0,0,1,1.47-.9c.22.43.13.7-.33.94a4.43,4.43,0,0,0-2.12,2.19.7.7,0,0,0-.68.69l0,.81a7.5,7.5,0,0,0-3.12,2.33l0,0a6.73,6.73,0,0,0-2.35,1.92c-1,1-2.53,1.42-2.74,3.07-2-.34-3.32.84-4.6,2-1.11,1-2.71,1.34-3.57,2.5a15.41,15.41,0,0,1-2.53,2.33,30.38,30.38,0,0,0-4.1,3.6,7.92,7.92,0,0,1-3.61,3,9.63,9.63,0,0,0-5,3.85c-.43.64-1.68.72-1.28,1.91l-.73,0c-2-.14-2.48,1.43-3.14,2.8,0,.12,0,.24,0,.36-1.61-.25-2.77.6-3.87,1.59-1.21,2.82-4.81,2.22-6.52,4.52-.42.55-1.43.81-1.55,1.81-.06.58-.52.66-1,.73l-2,0Z"/><path d="M24.26,98.24c-.53-1.18,0-2.35,0-3.52.17-.11.47-.21.47-.31-.08-2.33.82-2.68,2.88-1.74a2.87,2.87,0,0,0,3.2-.9c.56-.59,1-.49,1.25.32.74,2-.66,6.28-2.56,7.41a1.36,1.36,0,0,0-.56,2c.81,1.58.85,2.84-.71,4.08-.87.69-.85,2-.86,3.1-.06,3-.25,3.17-3.16,2.49a94,94,0,0,1,.06-11.75C25.18,99,25.11,98.61,24.26,98.24Z"/><path class="cls-6" d="M98.66,48.87c0,1.83,0,3.67.07,5.5a4.46,4.46,0,0,0-.91,2.85,2.85,2.85,0,0,1-1.5,2.69C95,60,95.18,61.25,94.78,62c-.86,1.67-.87,3.77-2.46,5.06-2.5,2-3.44,5.14-5.2,7.67-1.57,2.26-2.51,5-4.65,6.88a1.91,1.91,0,0,0-.59,1.76.86.86,0,0,0-.32.81c0,1,0,2-.07,3.07L81.4,90.4c-.93-4.08-1-8.09.93-12,.52-1.09,1.08-2.16,1.63-3.23l1.16-2c1.9-2.55,3.63-5.23,5.5-7.79,2.84-3.88,4.3-8.36,6.51-12.5C97.83,51.65,97.57,50,98.66,48.87Z"/><path d="M46.57,76l1.58,0a.48.48,0,0,0,.77,0h.79c.32,1.28,1.34,1.5,2.42,1.53a26.72,26.72,0,0,0,3.9,0c4.06-.43,8,.91,12,.86a3.07,3.07,0,0,1,1.28.42.81.81,0,0,1,.53.94.76.76,0,0,1-.95.48c-5.39-.84-10.7,1.14-16.1.48a8.65,8.65,0,0,1-3-.67c-1.89-1-4-.61-5.93-.32a30.55,30.55,0,0,1-4.68.15c-.53,0-1.11-.1-1.06-.83a.78.78,0,0,1,1-.66C42.09,79,44.16,77,46.57,76Z"/><path class="cls-5" d="M162,175.75l-.72,0q0-11.4,0-22.82l0-59.4.69-.72q.07,6.83.13,13.66,0,4.32,0,8.63v2.34c-.22,12.66-.11,25.32,0,38,0,1.69,0,3.38-.05,5.08l0,.42v.74q0,6.66,0,13.32Z"/><path class="cls-7" d="M162,92.79l-.69.72c-.26-.52-.57-1-.79-1.56a2.07,2.07,0,0,0-2.6-1.45,35.91,35.91,0,0,0-.58,7.74V99c-1.12-.49-.58-1.51-.74-2.3s0-1.82,0-2.73c0-.46-.12-.92-.68-1a1,1,0,0,0-1.19.48c-.67,1.43-2.09,2.43-2.6,3.81-.89,2.45-2.87,2.86-4.92,3.39,0-.5-.05-1.14.48-1.35,1.25-.5,1.11-1.53,1.09-2.53l0,0c2.62,0,3.11-.39,3.12-2.33,0-.27,0-.54,0-.81l.68-.69a4.43,4.43,0,0,1,2.12-2.19c.46-.24.55-.51.33-.94,1.49-1.41,3.38-1.16,4.92-.57A3.43,3.43,0,0,1,162,92.79Z"/><path class="cls-3" d="M81.4,90.4l.09-3.14.71,0v.79a3.1,3.1,0,0,0,.91,2.56c.82.77.45,2.4,1,3.59s.72,2.71,2.78,1.94c.89-.33.74.63.64,1.18-.21,1.21.25,1.83,1.5,2,.64.06,1.26.31,1.9.43,3.24.57,3.49.92,3,4.06-2.23-.1-3.84-1.69-5.79-2.47h0C84.93,98.28,82.17,95,81.4,90.4Z"/><path class="cls-2" d="M47,95.91a1.67,1.67,0,0,0-1.44.44c-1,1.22-1.62,1.45-1.68-.53,0-1-.94-.69-1.51-.59a6.12,6.12,0,0,1-2.51.2,2.35,2.35,0,0,1-2.06-1.83c-.13-.93.7-1.28,1.42-1.64.93-.47,2.07-1,.22-1.9,1-.84,2,0,2.9-.44a9,9,0,0,1,3.54,3.09A10.88,10.88,0,0,0,47,95.89Z"/><path class="cls-2" d="M116.19,93.54c-1.68-.38-2.06-1-.72-2.43a4.29,4.29,0,0,0,1.2-3.39,3.46,3.46,0,0,1,.49-2.23c.26-.41.31-.93-.26-1.15s-1,.22-1.07.77a6.72,6.72,0,0,1-.75,2.18c-.18.37-.4.69-.85.64s-.63-.42-.63-.85c0-1.68-1.28-1.43-2.24-1.26a11.3,11.3,0,0,1-4.6-.18c.88-1.17,2.15-.46,3.22-.68s2.11.47,2.76-.76a22.33,22.33,0,0,0,5.39-2.43C118.66,86,118.3,89.91,116.19,93.54Z"/><path class="cls-5" d="M47,95.89a10.88,10.88,0,0,1-1.13-3.18c.79-.06,1.21.68,1.89.88,3.52,3.18,7.47,5.82,11.17,8.77a35.54,35.54,0,0,1,2.58,2.47c-1.61.73-2.39-.86-3.18-1.52-1.87-1.55-4.15-2.5-5.87-4.24-.82-.81-1.86-1.41-2.61-2.27A3.24,3.24,0,0,0,47,95.89Z"/><path class="cls-5" d="M62.59,105.34,74.24,114a6.41,6.41,0,0,0,2.14,1.73l0,.11h.11l.84.61h0c0,.11,0,.21.08.32l-.75.31a2.87,2.87,0,0,1-2.33-1.19c-.9-.93-1.74-2-3.21-2-.19,0-.51-.07-.54-.17-1-3.17-4.22-3.53-6.35-5.26A4.48,4.48,0,0,1,62.59,105.34Z"/><path class="cls-8" d="M35.65,123.23c.56.36.39.92.39,1.42q0,24.58,0,49.18a2.71,2.71,0,0,1-.06.38l-.27-.06c0-1.56-.07-3.12-.11-4.68l0-1.51q0-4.14,0-8.26v-2.34c0-.78,0-1.57,0-2.35,0-2,0-3.92,0-5.88,0-1,0-2.08,0-3.12Z"/><path class="cls-7" d="M100.2,132l0,.7,0,.42c0,.37,0,.74-.07,1.12l-.71,0,0,0a1,1,0,0,0-.75-1.16c-2-.15-3.24-1.36-4.41-2.76a1.52,1.52,0,0,0-1.5-.72,1.15,1.15,0,0,1-1.31-.63,3.71,3.71,0,0,0-2.79-2.09c-1.35-.27-.91-1.51-1-2.44L96.32,131C97.48,131.89,98.67,132.59,100.2,132Z"/><path class="cls-9" d="M174.16,99.81l.06,40.49a1.42,1.42,0,0,1-.3,1.09q-.06-14-.1-28,0-5.76,0-11.54A3.63,3.63,0,0,1,174.16,99.81Z"/><path d="M70,74.31A5.29,5.29,0,0,1,71.28,72c2.29.62,2.72,1.22,2.2,3.12-.18.63-.42,1.24-1.14,1.43s-1-.42-1.24-.93S70.16,74.94,70,74.31Z"/><path d="M80.24,63.32l-.43,3.16a1.25,1.25,0,0,1-1.3,1.19c-.52,0-1.11.09-1.39-.46s.27-.95.61-1.29c.78-.8.4-1.88.73-2.77.24-.63.26-1.65,1.23-1.45C80.5,61.87,80.16,62.78,80.24,63.32Z"/><path class="cls-7" d="M76.7,117.05l.75-.31a34.34,34.34,0,0,1,5.09,3.82l-.31.33A14.6,14.6,0,0,1,76.7,117.05Z"/><path class="cls-8" d="M35.94,100.18q0,8.73.1,17.46c0,.38,0,.79-.39,1q0-8.09,0-16.19A4.39,4.39,0,0,1,35.94,100.18Z"/><path d="M76.22,88.29c1.54,1,1.31,2.33,1.22,3.6a.68.68,0,0,1-.77.7c-.47,0-.66-.4-.68-.81A8.83,8.83,0,0,1,76.22,88.29Z"/><path d="M77.13,84.48a5.88,5.88,0,0,1-.36-3.2c0-.48.21-.93.8-.88s.64.54.69,1C78.39,82.59,77.48,83.41,77.13,84.48Z"/><path d="M88.12,101.32c.08.74.52,1.74-1,1-.54-.28-1.29-.11-1.91-.29a1,1,0,0,1-.57-1.45c.28-.71.78-.16,1.13,0,.76.34,1.42,1,2.35.76Z"/><path d="M79.86,83.36c-.1,2.15.23,4.33-.52,6.41.16-2.13-1.15-4.4.52-6.4Z"/><path class="cls-8" d="M162.14,175q0-6.66,0-13.32c.63,2.67.14,5.38.29,8.07,0,.84,0,1.68.06,2.52C162.37,173.14,162.67,174.11,162.14,175Z"/><path d="M45,88.87a1.78,1.78,0,0,1,1.84,1.54c.06.33-.27.79-.51.65a7.85,7.85,0,0,1-2.12-1.65C43.92,89.05,44.6,88.94,45,88.87Z"/><path class="cls-10" d="M82.23,120.89l.31-.33c1.27.92,2.81,1.55,3.54,3.09-.32.34-.57.34-.94,0C84.21,122.67,83.2,121.79,82.23,120.89Z"/><path class="cls-6" d="M112.74,84.2c-.65,1.23-1.82.57-2.76.76s-2.34-.49-3.22.68h-.12c0-.24-.11-.48-.16-.72,0-.41,0-.83,0-1.24C108.47,85.15,110.64,84.19,112.74,84.2Z"/><path d="M33.66,88.45c2.75.15,1,2,1.18,3.13h0c-2-.45-.87-2-1.17-3.13Z"/><path d="M71.61,71.61c.64-1.28,1.11-2.66,2.35-3.54C74,69.79,73.51,71.17,71.61,71.61Z"/><path class="cls-11" d="M173.74,176.54a9.75,9.75,0,0,1-1.06,3.92C172.16,178.92,172,177.47,173.74,176.54Z"/><path d="M76.69,114.68c.53-1.17,1.07.11,1.6,0,.09.68.88.66,1.2,1.18-.58.7-1.44.3-2.12.57h0c0-.55-.29-.78-.84-.61h-.11l0-.11Z"/><path d="M85.12,73.24l-1.16,2c-.7-.55-1.25-1.34-.81-2.11C83.67,72.19,84.42,73.51,85.12,73.24Z"/><path class="cls-8" d="M162.19,115.08q0-4.31,0-8.63l.41,1.58c0,.27,0,.54-.05.8C162.26,110.91,162.85,113,162.19,115.08Z"/><path d="M41.27,88.72a4.57,4.57,0,0,1,.45-.61c.54-.5,1-1.2,1.81-1.2.07,0,.23.45.18.65-.22,1-1,1.24-1.85,1.33h0l-.53-.16Z"/><path d="M85,104.76c-.11.53-.52.5-.9.49s-.91-.15-.94-.73a.61.61,0,0,1,.73-.67A1.31,1.31,0,0,1,85,104.76Z"/><path d="M33.65,88.46a4.68,4.68,0,0,1-1.08-.33.84.84,0,0,1-.33-1,.62.62,0,0,1,.74-.46c.46.07.59.44.64.84s0,.64,0,1Z"/><path class="cls-8" d="M35.94,92.73v6.32A12.53,12.53,0,0,1,35.94,92.73Z"/><path d="M81.78,69.46A2.64,2.64,0,0,1,82,71.91C81.38,71.08,81.38,71.08,81.78,69.46Z"/><path d="M79.86,83.37c.08-.89-.2-1.81.46-2.64.21.92.82,1.87-.46,2.63Z"/><path d="M38.74,87.59c-.65.56-1.23.61-1.73,0-.17-.2-.21-.58.05-.68C37.77,86.68,38.13,87.44,38.74,87.59Z"/><path d="M48.53,88.06a3.23,3.23,0,0,1-.7-.25c-.32-.2-.66-.45-.53-.9a.57.57,0,0,1,.42-.29.72.72,0,0,1,.75.69c0,.25,0,.5.06.75Z"/><path d="M86.37,105a1.26,1.26,0,0,1,1.77-.22C87.65,105.45,87.13,105.31,86.37,105Z"/><path class="cls-11" d="M172.35,181.3a2,2,0,0,1-1.13,1.56,1.56,1.56,0,0,1-.53-1.23Z"/><path class="cls-11" d="M169.91,180.84a1,1,0,0,1,.78.79,1,1,0,0,1-.78-.78Z"/><path class="cls-12" d="M80.31,92.32a1.19,1.19,0,0,1-.25.13s-.09-.1-.08-.14a1.19,1.19,0,0,1,.13-.25Z"/><polygon class="cls-11" points="169.91 180.85 169.84 180.78 169.91 180.84 169.91 180.85"/><polygon class="cls-13" points="34.84 91.58 34.9 91.66 34.83 91.59 34.84 91.58"/><path class="cls-11" d="M172.58,180.85l-.26.49Z"/><path d="M12.55,92.8a12.6,12.6,0,0,0,2.09.27c3.21-.07,4,2.19,4.07,4.28a4.13,4.13,0,0,1-4.17,4.39c-3,.08-6,.08-9,0a4.33,4.33,0,0,1-4.4-4.25c-.1-2.52,1.35-4,4.09-4.43.34,0,.78.16,1-.25h.52c.25.28.49.3.73,0l.13,0,.13-.06h.4l.11.07.12,0a.43.43,0,0,0,.69,0h.53a.45.45,0,0,0,.7,0h.46a.39.39,0,0,0,.67,0H12c.2.24.4.28.59,0Z"/><path d="M12.15,122c0,3.09-2.07,4.89-5.69,4.91A4.74,4.74,0,0,1,1.55,122a4.9,4.9,0,0,1,4.92-5.08C9.74,116.78,12.13,118.93,12.15,122Z"/><path d="M25.14,179.66a9.61,9.61,0,0,1,2.46-1.73c-.19,2,.25,3.9-.27,5.74a7.07,7.07,0,0,1-1.85-3.21c.28-.11.87.09.7-.46-.08-.28-.52,0-.79.1Z"/><path class="cls-14" d="M24.22,126.82a1,1,0,0,1,.78,1c0,2.07,0,4.15,0,6.22a1,1,0,0,1-.78,1Z"/><path class="cls-14" d="M24.25,135.82c1.49,1.65.53,3.62.69,5.44,0,.54.22,1.37-.68,1.61A50.27,50.27,0,0,1,24.25,135.82Z"/><path class="cls-15" d="M.16,96.32c.55.56.69,1,.3,1.59C-.19,97.54,0,97,.16,96.32Z"/><path class="cls-14" d="M24.26,98.24c.85.37.92.76,0,1.17Z"/><path d="M25.39,180.1c.27-.1.71-.38.79-.1.17.55-.42.35-.7.46A.47.47,0,0,1,25.39,180.1Z"/><path class="cls-15" d="M113.23,192.7h-.16l.07-.24s.12,0,.13.08S113.24,192.65,113.23,192.7Z"/><polygon class="cls-15" points="165.93 188.99 166 189.08 165.91 189 165.93 188.99"/><path d="M77.41,36.48c.54,3.53-.1,5.19-2.4,6.18A4.07,4.07,0,0,1,69.64,41c-2.06-3.77-4-7.58-5.92-11.43a4.27,4.27,0,0,1,1.82-5.85,4.42,4.42,0,0,1,6.17,1.9c2,3.58,3.8,7.24,5.69,10.86Z"/><path class="cls-15" d="M78.64,42.13s.12,0,.14.07,0,.1,0,.15l-.23-.1Z"/><path class="cls-14" d="M48.92,76a.48.48,0,0,1-.77,0Z"/><path d="M75.5,156.59a7,7,0,0,1-.27-5.88c1.56-1.92,3.6-2.44,6-2.43,12.45.07,24.9,0,37.35,0a5.64,5.64,0,0,1,5.14,2.51,7.75,7.75,0,0,1,0,5,6,6,0,0,1-5.38,2.82c-12.22.07-24.45.16-36.67,0C79.34,158.58,77.23,158.29,75.5,156.59Zm43.91.81c-.44-.56-.92-.42-1.35-.43-12.31-.3-24.62.56-36.91-.45a.79.79,0,0,0-.88.62c-.13.58.4.55.76.59a8.06,8.06,0,0,0,1,0h35.62A2.34,2.34,0,0,0,119.41,157.4Zm-41.16-2c-.12-.61-.43-1.2-1.15-1.26a.77.77,0,0,0-.82.85,1.53,1.53,0,0,0,1.44,1.3C78.21,156.35,78.25,155.88,78.25,155.42Z"/><path class="cls-4" d="M158.94,175.76c-.66,1.12-1.16,2.47-2.87,1-.48-.41-1.5-.23-2.27-.23H45.89c-1.64,0-3.41.42-4.27-1.72-.35-.85-2-.52-2.11-1.79a3.82,3.82,0,0,0,2.24-1.79c.8-1.08,1.51-1.25,2.12.12a2.16,2.16,0,0,0,2.21,1.27c1,0,2,.18,2.92.2,6.07.15,12,2.24,18.13,1.3,3.73-.57,7.41-1.37,11.21-1.13a7.94,7.94,0,0,1,3,.72,9.77,9.77,0,0,0,6.32.21c2.41-.54,4.62-1.31,7.15,0a5.67,5.67,0,0,0,5-.09c2-1.05,3.9-.89,5.89-.74a138.2,138.2,0,0,0,18.54,0c2.6-.15,5.32-.82,7.77.86.38.26,1,.15,1.53.18,5.87.31,11.67-.46,17.49-1.05,2.17-.22,4.56-.85,6.45,1C158.28,174.34,158.05,175.6,158.94,175.76Z"/><path class="cls-4" d="M75.5,156.59c1.73,1.7,3.84,2,6.19,2,12.22.17,24.45.08,36.67,0a6,6,0,0,0,5.38-2.82c.75-.46.69-1.27.87-2,1.73.16,2-1.08,2.17-2.33.09-.78.36-1.93-.75-2.09s-.56,1.06-.87,1.6l-.3.5c-.38-.22-.59-.71-1.12-.71a5.64,5.64,0,0,0-5.14-2.51c-12.45,0-24.9.07-37.35,0-2.42,0-4.46.51-6,2.43-.13-.42.07-1.07-.45-1.2-.74-.19-.7.59-.94,1s-.3,1-.84,1.28a2,2,0,0,1-1-1.6c-.15-.82-.57-1.19-1.37-.79-1,.52-1.3-.27-1.55-.9-.32-.8.31-1.17.93-1.46a2.66,2.66,0,0,1,1.72,0,13.62,13.62,0,0,0,4-.29,54.56,54.56,0,0,1,5.83-.71q17.5,0,35,0c.85,0,1.89.37,2.41-.77h0c1.6-.13,3.27.36,4.79-.53a.79.79,0,0,1,1.08.13c.92,1.49,2.47,1.51,3.93,1.79,1.66.32,2.35,1.32,2.36,3a10.43,10.43,0,0,1-2.9,7.61,2.64,2.64,0,0,1-1.07.83c-1.64.47-3.38.61-4.72,1.88a1.24,1.24,0,0,1-1.13,0c-2.08-1.15-4.34-.66-6.51-.67-11.67,0-23.34,0-35,0-1.32,0-2.68-.22-3,1.62a.79.79,0,0,1-1.09.54c-.53-.19-.57-.69-.54-1.15C75.26,159.08,75.39,157.83,75.5,156.59Z"/><path class="cls-5" d="M147.19,100.57c2.05-.53,4-.94,4.92-3.39.51-1.38,1.93-2.38,2.6-3.81a1,1,0,0,1,1.19-.48c.56.12.67.58.68,1,0,.91,0,1.82,0,2.73a8.39,8.39,0,0,0-4.26,3.15c-1.42,1.68-2.5,3.62-4.72,4.87s-4.58,3.21-6.9,4.73c-2.1,1.37-4.13,2.9-6.37,4.08-1.19.63-2.62,1.28-1.48,3.1a.66.66,0,0,1-.27,1c-.19.09-.61.07-.7-.06-1.75-2.38-2.76.43-3,.88a4.47,4.47,0,0,1-4.15,2.66c-1.56.13-1.92,2-3,2.91a10.53,10.53,0,0,1-2.58,2,6.93,6.93,0,0,0-3.31,2.92c-1.13,2-3,1.33-4.72,1.46l0,0c-.45-.88-.65-1.65.49-2.22,2.28-1.13,4.7-2.15,6.46-4,1.14-1.23,3.27-1.69,3.26-3.89,1.63-.89,3.69-.86,5-2.49a6.61,6.61,0,0,1,2.59-2.52,11.07,11.07,0,0,0,6.07-5.79,2.24,2.24,0,0,1,1-.85,24.18,24.18,0,0,0,6.28-4.14,2.33,2.33,0,0,1,1.75-.69c.06.41-.16,1,.35,1.15s.49-.46.69-.74a2.75,2.75,0,0,0,.5-2Z"/><path class="cls-4" d="M157.35,99c0-.24,0-.48,0-.72.46.05,1.07.12.93.72-.77,3.35.73,6.54.65,9.82-.47,18.27,1,36.56-.78,54.8-.33,3.34,1.33,6.5.78,9.84l-1.55-.39q0-35.57,0-71.14C157.38,100.92,157.36,99.94,157.35,99Z"/><path class="cls-4" d="M119,145.22q-20.55,0-41.09,0c-.88,0-2.47.52-2.47-.7,0-1.44,1.65-.8,2.55-.8,12.92-.05,25.83,0,38.75,0,1.11,0,2.36-.18,2.26,1.57Z"/><path class="cls-5" d="M100.24,133.1l0-.42,2,0c.56.73,1.07.91,1.93.25,2.07-1.56,4.31-2.82,7.06-2.63l0,0c-.26,1.8-1.57,2.31-3.09,2.3a3.53,3.53,0,0,0-3.47,1.66c-.64,1-1.5.82-2.29.09A3.77,3.77,0,0,0,100.24,133.1Z"/><path class="cls-3" d="M157.39,173l1.55.39v.78c0,.51,0,1,0,1.55h0c-.89-.16-.66-1.42-1.55-1.58Z"/><path class="cls-5" d="M98.69,133.07a1,1,0,0,1,.75,1.16C98.83,134.08,98.36,133.83,98.69,133.07Z"/><path class="cls-5" d="M99.46,134.25l.71,0c0,.25-.07.57-.43.49C99.62,134.69,99.55,134.41,99.46,134.25Z"/><path class="cls-8" d="M162.19,155.4c-.11-12.66-.22-25.32,0-38,.59,2.19.13,4.42.34,6.63,0,.53,0,1.07,0,1.6q0,13.29,0,26.58c0,.42,0,.84,0,1.26C162.42,154.12,162.75,154.85,162.19,155.4Z"/><path class="cls-14" d="M162.54,152.23q0-13.29,0-26.58c.77.33.73,1,.73,1.66a58.81,58.81,0,0,1,0,6.64c-.64,5.33-.19,10.66-.35,16A4.29,4.29,0,0,1,162.54,152.23Z"/><path class="cls-14" d="M162.53,124.05c-.21-2.21.25-4.44-.34-6.63v-.77a.51.51,0,0,0,0-.8v-.77c.66-2,.07-4.17.32-6.25.76,3,1.81,6,.5,9.26C162.28,119.91,163.27,122.09,162.53,124.05Z"/><path class="cls-14" d="M162.19,155.4c.56-.55.23-1.28.36-1.91a13.8,13.8,0,0,1-.13,7l-.28,0C162.16,158.78,162.17,157.09,162.19,155.4Z"/><path class="cls-8" d="M162.14,160.48l.28,0-.24.39Z"/><path class="cls-14" d="M35.55,149.13c0,2,0,3.92,0,5.88-.47-.07-1-.2-1-.74q-.09-2.21,0-4.41C34.57,149.33,35.09,149.2,35.55,149.13Z"/><path class="cls-14" d="M35.53,157.36v2.34C34.53,158.91,34.53,158.14,35.53,157.36Z"/><path class="cls-14" d="M35.55,168l0,1.51A1.12,1.12,0,0,1,35.55,168Z"/><path class="cls-2" d="M158.94,174.2v-.78c.55-3.34-1.11-6.5-.78-9.84,1.79-18.24.31-36.53.78-54.8.08-3.28-1.42-6.47-.65-9.82.14-.6-.47-.67-.93-.72a35.91,35.91,0,0,1,.58-7.74,2.07,2.07,0,0,1,2.6,1.45c.22.54.53,1,.79,1.56l0,59.4q0,11.42,0,22.82c-.49.53-.87.54-1-.25-.07-.42.21-.89-.15-1.28Z"/><path class="cls-4" d="M158.94,174.2h1.19c-.33.56-.35,1.37-1.18,1.55C159,175.23,159,174.71,158.94,174.2Z"/><path class="cls-14" d="M41.31,88.72l.53.16Z"/><path d="M76.69,114.68l-.31,1A6.41,6.41,0,0,1,74.24,114c.94-.19,1-1.15,1.39-1.74s.79-1,1.57-.71c.29.11.72.1.76.47.07.76-.58.91-1.1,1.13C75.84,113.53,75.61,114,76.69,114.68Z"/><path class="cls-2" d="M82.21,88.07v-.79A1.64,1.64,0,0,1,84,86.14c1.42.09,2.11-.72,2.71-1.81A54,54,0,0,1,90.86,78c.16-.21.26-.53.47-.61C95,75.9,95.13,72,96.89,69.29a8.34,8.34,0,0,1,1.42-1.9c1.82-1.65,4.15-2.83,5.2-5.25a1.07,1.07,0,0,1,1.5-.52c.75.3,1.43.76,1.42,1.67a26.18,26.18,0,0,0,1.08,6.76c.52,2-.32,3.86.36,5.79.45,1.3-.64,3-1.6,3.77-1.54,1.24-1.33,2.64-1.35,4.15,0,.39,0,.78,0,1.17l-.35-.17c-.59-.29-.41-1.56-1.5-1.18a.56.56,0,0,0-.33.8c.43.75.47,2.08,1.56,2,3.53-.17,3.36,3.34,5,5,1,1-1.89,5-3.39,4.78-3.58-.54-7.16-.17-10.74-.26A14.18,14.18,0,0,1,90.8,95c-1.39-.48-2.4-1.32-2.34-3a2.87,2.87,0,0,0-.07-.58c-.08-.41-.34-.92-.67-.86C85.26,91.05,85.07,86.66,82.21,88.07ZM100.67,86a6.66,6.66,0,0,0-.09-4.2A5.76,5.76,0,0,0,100.67,86Z"/><path class="cls-2" d="M106.48,84.93c0,.24.11.48.16.72-.69,0-1.42.17-1.72-.72Z"/><path class="cls-10" d="M81.88,83.38a1.91,1.91,0,0,1,.59-1.76c2.14-1.91,3.08-4.62,4.65-6.88,1.76-2.53,2.7-5.63,5.2-7.67,1.59-1.29,1.6-3.39,2.46-5.06.4-.76.23-2,1.54-2.1.17,2.34-.12,4.48-1.9,6.29a3.38,3.38,0,0,0-.86,3.07l-.35,0c-.42.09-.57.44-.84.72-2,2.08-2.8,5-4.93,6.92A3.39,3.39,0,0,0,86.12,80c.16,1.38-.61,2-1.82,2.35-.49.14-1.5-.15-1.3,1H81.88Z"/><path class="cls-7" d="M93.56,69.27a3.38,3.38,0,0,1,.86-3.07c1.78-1.81,2.07-4,1.9-6.29a2.85,2.85,0,0,0,1.5-2.69,4.46,4.46,0,0,1,.91-2.85H99l0,0c1.57,2,1.07,5-.61,7.25-1.08,1.43-1.38,3.43-2.21,5.08C95.68,67.86,95.77,69.85,93.56,69.27Z"/><path class="cls-7" d="M83,83.37c-.2-1.14.81-.85,1.3-1,1.21-.38,2-1,1.82-2.35A3.39,3.39,0,0,1,87.44,77c2.13-1.94,3-4.84,4.93-6.92.27-.28.42-.63.84-.72-.1,1.93-1,3.42-2,5.12-1.43,2.53-4.17,4.3-4.48,7.5a1.68,1.68,0,0,1-1.85,1.4C84.28,83.33,83.64,83.36,83,83.37Z"/><path class="cls-7" d="M81.88,83.38H83c-.21.74-.82.77-1.43.81A.86.86,0,0,1,81.88,83.38Z"/><path class="cls-7" d="M99,54.38l.12-.31c.24.17,0,.23-.08.34Z"/><path class="cls-10" d="M144.07,103.7a2.33,2.33,0,0,0-1.75.69,24.18,24.18,0,0,1-6.28,4.14,2.24,2.24,0,0,0-1,.85,11.07,11.07,0,0,1-6.07,5.79,6.61,6.61,0,0,0-2.59,2.52c-1.29,1.63-3.35,1.6-5,2.49-.62.1-1,.6-1.42,1s-.8.3-1-.28c-.4-1.19.85-1.27,1.28-1.91a9.63,9.63,0,0,1,5-3.85,7.92,7.92,0,0,0,3.61-3,30.38,30.38,0,0,1,4.1-3.6,15.41,15.41,0,0,0,2.53-2.33c.86-1.16,2.46-1.5,3.57-2.5,1.28-1.13,2.64-2.31,4.6-2,.21-1.65,1.77-2.09,2.74-3.07a6.73,6.73,0,0,1,2.35-1.92c0,1,.16,2-1.09,2.53-.53.21-.45.85-.48,1.35l-1.58,1.57A1.81,1.81,0,0,0,144.07,103.7Z"/><path class="cls-7" d="M119,120.87c.19.58.51.7,1,.28s.8-.87,1.42-1c0,2.2-2.12,2.66-3.26,3.89-1.76,1.89-4.18,2.91-6.46,4-1.14.57-.94,1.34-.49,2.22-2.75-.19-5,1.07-7.06,2.63-.86.66-1.37.48-1.93-.25.45-.07.91-.15,1-.73.12-1,1.13-1.26,1.55-1.81,1.71-2.3,5.31-1.7,6.52-4.52,1.64.32,3.22.49,3.87-1.59,0-.12,0-.24,0-.36a1.37,1.37,0,0,0,2.06-.62c.42-.69.73-1.45,1.08-2.18Z"/><path class="cls-10" d="M118.23,120.9c-.35.73-.66,1.49-1.08,2.18a1.37,1.37,0,0,1-2.06.62C115.75,122.33,116.23,120.76,118.23,120.9Z"/><path class="cls-10" d="M115.08,124.06c-.65,2.08-2.23,1.91-3.87,1.59C112.31,124.66,113.47,123.81,115.08,124.06Z"/><path class="cls-10" d="M151.9,94.34c0,1.94-.5,2.3-3.12,2.33A7.5,7.5,0,0,1,151.9,94.34Z"/><path class="cls-10" d="M152.62,92.84l-.68.69A.7.7,0,0,1,152.62,92.84Z"/><path class="cls-8" d="M162.19,115.85a.51.51,0,0,1,0,.8Z"/><path class="cls-14" d="M76.53,115.8c.55-.17.81.06.84.61Z"/><path class="cls-1" d="M12,92.81l.59,0C12.37,93.09,12.17,93.05,12,92.81Z"/><path class="cls-1" d="M9.66,92.8h.7A.45.45,0,0,1,9.66,92.8Z"/><path class="cls-1" d="M8.44,92.81h.69A.43.43,0,0,1,8.44,92.81Z"/><path class="cls-1" d="M7.81,92.78h0Z"/><path class="cls-1" d="M6.82,92.81h.73C7.31,93.11,7.07,93.09,6.82,92.81Z"/><path class="cls-1" d="M10.82,92.8h.67A.39.39,0,0,1,10.82,92.8Z"/><path d="M119.41,157.4a2.34,2.34,0,0,1-1.78.34H82a8.06,8.06,0,0,1-1,0c-.36,0-.89,0-.76-.59a.79.79,0,0,1,.88-.62c12.29,1,24.6.15,36.91.45C118.49,157,119,156.84,119.41,157.4Z"/><path d="M78.25,155.42c0,.46,0,.93-.53.89a1.53,1.53,0,0,1-1.44-1.3.77.77,0,0,1,.82-.85C77.82,154.22,78.13,154.81,78.25,155.42Z"/><path class="cls-6" d="M123.74,150.79c.53,0,.74.49,1.12.71a5.37,5.37,0,0,0-.25,2.32c-.18.71-.12,1.52-.87,2A7.75,7.75,0,0,0,123.74,150.79Z"/><path class="cls-2" d="M124.61,153.82a5.37,5.37,0,0,1,.25-2.32l.3-.5c.31-.54-.19-1.75.87-1.6s.84,1.31.75,2.09C126.63,152.74,126.34,154,124.61,153.82Z"/><path class="cls-7" d="M144.07,103.7a1.81,1.81,0,0,1,1.54-1.56,2.75,2.75,0,0,1-.5,2c-.2.28-.23.88-.69.74S144.13,104.11,144.07,103.7Z"/><path class="cls-4" d="M100.67,86a5.76,5.76,0,0,1-.09-4.2A6.66,6.66,0,0,1,100.67,86Z"/></g></g></svg>